<svg xmlns="http://www.w3.org/2000/svg" class="icon"><symbol id="arrow-left-double" viewBox="0 0 24 24"><g clip-path="url(#a)"><path d="M5.69 10.004l4.125 4.125-1.178 1.178-5.304-5.303L8.637 4.7l1.178 1.178-4.125 4.125z"/><path d="M11.523 10.004l4.125 4.125-1.178 1.178-5.303-5.303L14.47 4.7l1.178 1.178-4.125 4.125z"/></g><defs><clipPath id="a"><path fill="currentColor" d="M0 0h20v20H0z"/></clipPath></defs></symbol><symbol id="search" viewBox="0 0 24 24"><g clip-path="url(#a)"><path d="M12.917 11.667h-.659l-.233-.225a5.417 5.417 0 0 0 1.233-4.45c-.391-2.317-2.325-4.167-4.658-4.45A5.42 5.42 0 0 0 2.542 8.6c.283 2.333 2.133 4.267 4.45 4.658a5.417 5.417 0 0 0 4.45-1.233l.225.233v.659l3.541 3.541a.88.88 0 0 0 1.242 0 .88.88 0 0 0 0-1.241l-3.533-3.55zm-5 0a3.745 3.745 0 0 1-3.75-3.75 3.745 3.745 0 0 1 3.75-3.75 3.745 3.745 0 0 1 3.75 3.75 3.745 3.745 0 0 1-3.75 3.75z"/><path d="M12.917 11.667h-.659l-.233-.225a5.417 5.417 0 0 0 1.233-4.45c-.391-2.317-2.325-4.167-4.658-4.45A5.42 5.42 0 0 0 2.542 8.6c.283 2.333 2.133 4.267 4.45 4.658a5.417 5.417 0 0 0 4.45-1.233l.225.233v.659l3.541 3.541a.88.88 0 0 0 1.242 0 .88.88 0 0 0 0-1.241l-3.533-3.55zm-5 0a3.745 3.745 0 0 1-3.75-3.75 3.745 3.745 0 0 1 3.75-3.75 3.745 3.745 0 0 1 3.75 3.75 3.745 3.745 0 0 1-3.75 3.75z"/></g><defs><clipPath id="a"><path fill="currentColor" d="M0 0h20v20H0z"/></clipPath></defs></symbol><symbol id="arrow-up" viewBox="0 0 24 24"><g clip-path="url(#a)"><path d="M10 9.026l4.125 4.125 1.178-1.178L10 6.669l-5.304 5.304 1.179 1.178L10 9.026z"/></g><defs><clipPath id="a"><path fill="currentColor" d="M0 0h20v20H0z" transform="matrix(1 0 0 -1 0 20)"/></clipPath></defs></symbol><symbol id="arrow-right" viewBox="0 0 24 24"><path d="M10.974 10l-4.125 4.125 1.178 1.178L13.331 10 8.027 4.696 6.85 5.875 10.974 10z"/></symbol><symbol id="arrow-left" viewBox="0 0 24 24"><path d="M9.026 10l4.125-4.125-1.178-1.178L6.669 10l5.304 5.304 1.178-1.179L9.026 10z"/></symbol><symbol id="arrow-right-double" viewBox="0 0 24 24"><g clip-path="url(#a)"><path d="M14.31 9.996l-4.125-4.125 1.178-1.178 5.304 5.303-5.304 5.303-1.178-1.178 4.125-4.125z"/><path d="M8.477 9.996L4.352 5.871 5.53 4.693l5.303 5.303L5.53 15.3l-1.178-1.178 4.125-4.125z"/></g><defs><clipPath id="a"><path fill="currentColor" d="M0 0h20v20H0z" transform="rotate(-180 10 10)"/></clipPath></defs></symbol><symbol id="arrow-down" viewBox="0 0 24 24"><path d="M10 10.974L5.875 6.849 4.697 8.027 10 13.331l5.303-5.304-1.178-1.178L10 10.974z"/></symbol></svg>